<svg width="69" height="69" viewBox="0 0 69 69" fill="none" xmlns="http://www.w3.org/2000/svg">
<g filter="url(#filter0_d_607_1611)">
<rect x="11" y="7" width="47" height="47" rx="10" fill="#FE7624"/>
</g>
<path d="M22.1767 32.5592C22.192 32.5518 23.7308 31.8203 25.1562 31.8203C26.2145 31.8203 27.4657 32.832 27.8575 33.2207L28.4364 33.7974L29.0164 33.2218C29.4093 32.832 30.6605 31.8203 31.7188 31.8203C32.6129 31.8203 33.6449 32.5426 34.1797 33.0011V42.5391C34.1797 43.896 35.2837 45 36.6406 45C37.9976 45 39.1016 43.896 39.1016 42.5391V40.8984H37.4609V42.5391C37.4609 42.9914 37.0929 43.3594 36.6406 43.3594C36.1883 43.3594 35.8203 42.9914 35.8203 42.5391V33.0011C36.356 32.542 37.3874 31.8203 38.2812 31.8203C39.3395 31.8203 40.5907 32.832 40.9825 33.2207L41.5614 33.7974L42.1414 33.2218C42.5343 32.832 43.7855 31.8203 44.8438 31.8203C46.2661 31.8203 47.801 32.5485 47.8232 32.5591L49 33.1285V31.8203C49 24.4233 43.1841 19.0363 35.8203 18.6622V17H34.1797V18.6622C26.8134 19.0365 21 24.4257 21 31.8203L21.001 33.1241L22.1767 32.5592ZM29.322 30.9349C29.5743 27.5484 31.0759 21.5668 34.1797 20.4332V30.9737C33.4958 30.556 32.6275 30.1797 31.7188 30.1797C30.8382 30.1797 29.9956 30.5331 29.322 30.9349ZM35.8203 30.9736V20.4332C38.9377 21.5718 40.4263 27.5567 40.678 30.935C40.0044 30.5331 39.1618 30.1797 38.2812 30.1797C37.3725 30.1797 36.5042 30.556 35.8203 30.9736ZM47.2977 30.6035C46.6153 30.3873 45.7294 30.1797 44.8438 30.1797C43.9103 30.1797 43.0197 30.5768 42.3276 31.0078C42.1014 27.6333 41.0823 23.4678 38.9383 20.835C43.5444 22.1869 46.8151 25.8945 47.2977 30.6035ZM31.0617 20.835C28.9177 23.4678 27.8986 27.6333 27.6724 31.0078C26.9803 30.5768 26.0897 30.1797 25.1562 30.1797C24.2706 30.1797 23.3847 30.3873 22.7023 30.6035C23.1849 25.8945 26.4556 22.1869 31.0617 20.835Z" fill="white"/>
<defs>
<filter id="filter0_d_607_1611" x="0" y="0" width="69" height="69" filterUnits="userSpaceOnUse" color-interpolation-filters="sRGB">
<feFlood flood-opacity="0" result="BackgroundImageFix"/>
<feColorMatrix in="SourceAlpha" type="matrix" values="0 0 0 0 0 0 0 0 0 0 0 0 0 0 0 0 0 0 127 0" result="hardAlpha"/>
<feMorphology radius="5" operator="erode" in="SourceAlpha" result="effect1_dropShadow_607_1611"/>
<feOffset dy="4"/>
<feGaussianBlur stdDeviation="8"/>
<feComposite in2="hardAlpha" operator="out"/>
<feColorMatrix type="matrix" values="0 0 0 0 0.996078 0 0 0 0 0.462745 0 0 0 0 0.141176 0 0 0 1 0"/>
<feBlend mode="normal" in2="BackgroundImageFix" result="effect1_dropShadow_607_1611"/>
<feBlend mode="normal" in="SourceGraphic" in2="effect1_dropShadow_607_1611" result="shape"/>
</filter>
</defs>
</svg>
