<svg width="130" height="18" viewBox="0 0 130 18" fill="none" xmlns="http://www.w3.org/2000/svg">
<path fill-rule="evenodd" clip-rule="evenodd" d="M8 11.4135V18H10V11.4144L14.6571 16.0715L16.0713 14.6573L11.414 10H18V8L11.4135 8L16.0698 3.34369L14.6556 1.92947L10 6.58505V0H8V6.58602L3.34339 1.92941L1.92918 3.34362L6.58555 8L0 8V10H6.58505L1.92766 14.6574L3.34187 16.0716L8 11.4135Z" fill="#FE7624"/>
<path fill-rule="evenodd" clip-rule="evenodd" d="M36 11.4135V18H38V11.4144L42.6571 16.0715L44.0713 14.6573L39.414 10H46V8L39.4135 8L44.0698 3.34369L42.6556 1.92947L38 6.58505V0H36V6.58602L31.3434 1.92941L29.9292 3.34362L34.5856 8L28 8V10H34.5851L29.9277 14.6574L31.3419 16.0716L36 11.4135Z" fill="#FE7624"/>
<path fill-rule="evenodd" clip-rule="evenodd" d="M64 11.4135V18H66V11.4144L70.6571 16.0715L72.0713 14.6573L67.414 10H74V8L67.4135 8L72.0698 3.34369L70.6556 1.92947L66 6.58505V0H64V6.58602L59.3434 1.92941L57.9292 3.34362L62.5856 8L56 8V10H62.5851L57.9277 14.6574L59.3419 16.0716L64 11.4135Z" fill="#FE7624"/>
<path fill-rule="evenodd" clip-rule="evenodd" d="M92 11.4135V18H94V11.4144L98.6571 16.0715L100.071 14.6573L95.414 10H102V8L95.4135 8L100.07 3.34369L98.6556 1.92947L94 6.58505V0H92V6.58602L87.3434 1.92941L85.9292 3.34362L90.5856 8L84 8V10H90.5851L85.9277 14.6574L87.3419 16.0716L92 11.4135Z" fill="#FE7624"/>
<path fill-rule="evenodd" clip-rule="evenodd" d="M120 11.4135V18H122V11.4144L126.657 16.0715L128.071 14.6573L123.414 10H130V8L123.413 8L128.07 3.34369L126.656 1.92947L122 6.58505V0H120V6.58602L115.343 1.92941L113.929 3.34362L118.586 8L112 8V10H118.585L113.928 14.6574L115.342 16.0716L120 11.4135Z" fill="#FE7624"/>
</svg>
