<svg width="130" height="18" viewBox="0 0 130 18" fill="none" xmlns="http://www.w3.org/2000/svg">
<path fill-rule="evenodd" clip-rule="evenodd" d="M8 11.4132V18H10V11.4143L14.6571 16.0714L16.0713 14.6572L11.4142 10H18V8L11.4132 8L16.0698 3.34344L14.6556 1.92923L10 6.58481V0H8V6.58585L3.34338 1.92923L1.92917 3.34344L6.58572 8L0 8V10H6.58481L1.92766 14.6572L3.34187 16.0714L8 11.4132Z" fill="white"/>
<path fill-rule="evenodd" clip-rule="evenodd" d="M36 11.4132V18H38V11.4143L42.6571 16.0714L44.0713 14.6572L39.4142 10H46V8L39.4132 8L44.0698 3.34344L42.6556 1.92923L38 6.58481V0H36V6.58585L31.3434 1.92923L29.9292 3.34344L34.5857 8L28 8V10H34.5848L29.9277 14.6572L31.3419 16.0714L36 11.4132Z" fill="white"/>
<path fill-rule="evenodd" clip-rule="evenodd" d="M64 11.4132V18H66V11.4143L70.6571 16.0714L72.0713 14.6572L67.4142 10H74V8L67.4132 8L72.0698 3.34344L70.6556 1.92923L66 6.58481V0H64V6.58585L59.3434 1.92923L57.9292 3.34344L62.5857 8L56 8V10H62.5848L57.9277 14.6572L59.3419 16.0714L64 11.4132Z" fill="white"/>
<path fill-rule="evenodd" clip-rule="evenodd" d="M92 11.4132V18H94V11.4143L98.6571 16.0714L100.071 14.6572L95.4142 10H102V8L95.4132 8L100.07 3.34344L98.6556 1.92923L94 6.58481V0H92V6.58585L87.3434 1.92923L85.9292 3.34344L90.5857 8L84 8V10H90.5848L85.9277 14.6572L87.3419 16.0714L92 11.4132Z" fill="white"/>
<path fill-rule="evenodd" clip-rule="evenodd" d="M120 11.4132V18H122V11.4143L126.657 16.0714L128.071 14.6572L123.414 10H130V8L123.413 8L128.07 3.34344L126.656 1.92923L122 6.58481V0H120V6.58585L115.343 1.92923L113.929 3.34344L118.586 8L112 8V10H118.585L113.928 14.6572L115.342 16.0714L120 11.4132Z" fill="white"/>
</svg>
