<svg width="125" height="194" viewBox="0 0 125 194" fill="none" xmlns="http://www.w3.org/2000/svg">
<g filter="url(#filter0_d_1451_6342)">
<path d="M24 16C24 13.2386 26.2386 11 29 11H95.9341C98.6956 11 100.934 13.2386 100.934 16V152C100.934 154.761 98.6956 157 95.9341 157H29C26.2386 157 24 154.761 24 152V16Z" fill="#F0F5FF"/>
<path d="M25.5 16C25.5 14.067 27.067 12.5 29 12.5H95.9341C97.8671 12.5 99.4341 14.067 99.4341 16V152C99.4341 153.933 97.8671 155.5 95.9341 155.5H29C27.067 155.5 25.5 153.933 25.5 152V16Z" stroke="white" stroke-width="3"/>
</g>
<path d="M33.1235 70.9165H93.4469" stroke="#B0B7D2" stroke-width="0.5"/>
<circle cx="33.1232" cy="70.9166" r="2.62275" fill="#1AC9D7"/>
<circle cx="47.9855" cy="70.9166" r="2.62275" fill="#B0B7D2"/>
<circle cx="62.8479" cy="70.9166" r="2.62275" fill="#B0B7D2"/>
<circle cx="77.7102" cy="70.9166" r="2.62275" fill="#B0B7D2"/>
<circle cx="92.5725" cy="70.9166" r="2.62275" fill="#B0B7D2"/>
<rect x="37.4946" y="135.611" width="49.8323" height="13.1138" rx="4" fill="#1AC9D7"/>
<path d="M54.1055 141.731H71.5905" stroke="white" stroke-width="2" stroke-linecap="round"/>
<path d="M31.6661 45.3533H33.8821C35.6501 45.3533 36.8341 44.2253 36.8341 42.5533C36.8341 40.8893 35.6501 39.7533 33.8821 39.7533H31.6661V45.3533ZM32.9381 44.1853V40.9213H33.8421C34.8501 40.9213 35.5301 41.5693 35.5301 42.5533C35.5301 43.5373 34.8501 44.1853 33.8581 44.1853H32.9381ZM39.6233 45.4653C40.6553 45.4653 41.4713 44.9373 41.8393 44.0493H40.6073C40.4073 44.3293 40.0473 44.4893 39.6473 44.4893C39.0953 44.4893 38.6633 44.1773 38.5513 43.6013H41.9193C41.9913 42.0653 41.0793 41.0413 39.6393 41.0413C38.2793 41.0413 37.3433 41.9453 37.3433 43.2493C37.3433 44.5613 38.2713 45.4653 39.6233 45.4653ZM38.5593 42.8333C38.6953 42.3213 39.1113 42.0093 39.6473 42.0093C40.2073 42.0093 40.6073 42.3213 40.7433 42.8333H38.5593ZM43.7595 45.3533H44.9755L46.7275 41.1533H45.4075L44.9275 42.4733L44.3755 43.8973L43.8155 42.4733L43.3435 41.1533H42.0155L43.7595 45.3533ZM47.3309 45.3533H48.5469V41.1533H47.3309V45.3533ZM47.1549 39.7933C47.1549 40.2413 47.4749 40.5533 47.9389 40.5533C48.4029 40.5533 48.7229 40.2413 48.7229 39.7933C48.7229 39.3453 48.4029 39.0333 47.9389 39.0333C47.4749 39.0333 47.1549 39.3453 47.1549 39.7933ZM51.2966 45.4653C52.4326 45.4653 53.1206 44.9693 53.1206 44.1693C53.1206 43.4813 52.6086 43.0413 51.5686 42.8333C50.8486 42.6893 50.6246 42.5693 50.6246 42.3133C50.6246 42.0653 50.8486 41.9213 51.2086 41.9213C51.6166 41.9213 51.8646 42.1053 51.8886 42.4253H53.0486C52.9926 41.5373 52.3366 41.0413 51.2166 41.0413C50.0886 41.0413 49.4486 41.4973 49.4486 42.3133C49.4486 43.0093 49.9286 43.4253 51.0006 43.6173C51.6486 43.7293 51.9206 43.8973 51.9206 44.1613C51.9206 44.4093 51.6966 44.5613 51.3126 44.5613C50.8646 44.5613 50.5926 44.3453 50.5846 44.0013H49.3926C49.3926 44.8813 50.1446 45.4653 51.2966 45.4653Z" fill="#142973"/>
<path d="M31.375 52.5573L67.6564 52.5573" stroke="#DAE0F7" stroke-width="4" stroke-linecap="round"/>
<path d="M31.375 59.5513L92.5726 59.5513" stroke="#DAE0F7" stroke-width="4" stroke-linecap="round"/>
<rect x="31.0005" y="81.9076" width="62.8204" height="12.4832" rx="3.5" fill="white" stroke="#F0F5FF"/>
<rect x="31.0005" y="100.267" width="62.8204" height="12.4832" rx="3.5" fill="white" stroke="#F0F5FF"/>
<rect x="31.0005" y="118.626" width="62.8204" height="12.4832" rx="3.5" fill="white" stroke="#F0F5FF"/>
<rect x="46.7305" y="12.7485" width="32.3473" height="4.37126" rx="2" fill="white"/>
<path d="M71.2095 14.4969H75.5807" stroke="#142973" stroke-width="0.5" stroke-linecap="round"/>
<path d="M41.7828 25.9713C40.4501 25.788 39.8878 25.2625 39.8878 24.2233C39.8878 23.2775 40.4188 22.7168 41.1975 22.4871H38.393V26.6192C38.1797 26.663 37.9629 26.6875 37.7452 26.6924C36.9995 26.6924 36.8647 26.3626 36.8647 25.7634V22.4871H35.1307V25.5784C34.9155 25.0238 34.3755 24.6638 33.2452 24.4799C32.8388 24.419 32.6812 24.3089 32.6812 24.1009C32.6812 23.9176 32.8277 23.7465 33.2922 23.7465C33.7567 23.7465 34.1994 23.8762 34.66 24.1367V22.6732C34.2425 22.4731 33.816 22.3652 33.219 22.3652C31.9718 22.3652 30.9941 22.9399 30.9941 24.2233C30.9941 25.2625 31.5565 25.7885 32.8891 25.9713C33.4023 26.0446 33.5599 26.167 33.5599 26.3867C33.5599 26.6315 33.2911 26.7293 32.9121 26.7293C32.3989 26.7293 31.6409 26.4968 31.0908 26.1301V27.6584C31.58 27.9519 32.2888 28.1106 32.9613 28.1106C34.1843 28.1106 35.0463 27.6634 35.2157 26.6936C35.4952 27.7819 36.4259 28.1106 37.744 28.1106C38.4646 28.1106 39.359 27.9888 39.9828 27.7931V26.1301C40.5329 26.4968 41.2909 26.7293 41.804 26.7293C42.183 26.7293 42.4519 26.6315 42.4519 26.3867C42.4536 26.167 42.2943 26.0446 41.7828 25.9713Z" fill="#33CEDB"/>
<path d="M43.7644 22.4872V24.262C43.2256 23.9193 42.7241 23.7477 42.1853 23.7477C41.7202 23.7477 41.5737 23.9193 41.5737 24.1027C41.5737 24.3106 41.7325 24.4208 42.1366 24.4822C43.7153 24.7394 44.1434 25.3386 44.1434 26.3303C44.1434 26.735 44.0428 27.0671 43.8584 27.3309C44.2938 27.9167 45.0786 28.1135 46.0943 28.1135C46.816 28.1135 47.8552 27.9911 48.479 27.7954V22.4872H46.7417V26.6199C46.5282 26.6641 46.3112 26.6888 46.0932 26.6936C45.3475 26.6936 45.2128 26.3633 45.2128 25.764V22.4872H43.7644Z" fill="#FE7624"/>
<defs>
<filter id="filter0_d_1451_6342" x="0" y="0" width="124.934" height="194" filterUnits="userSpaceOnUse" color-interpolation-filters="sRGB">
<feFlood flood-opacity="0" result="BackgroundImageFix"/>
<feColorMatrix in="SourceAlpha" type="matrix" values="0 0 0 0 0 0 0 0 0 0 0 0 0 0 0 0 0 0 127 0" result="hardAlpha"/>
<feOffset dy="13"/>
<feGaussianBlur stdDeviation="12"/>
<feComposite in2="hardAlpha" operator="out"/>
<feColorMatrix type="matrix" values="0 0 0 0 0.0784314 0 0 0 0 0.160784 0 0 0 0 0.45098 0 0 0 0.1 0"/>
<feBlend mode="normal" in2="BackgroundImageFix" result="effect1_dropShadow_1451_6342"/>
<feBlend mode="normal" in="SourceGraphic" in2="effect1_dropShadow_1451_6342" result="shape"/>
</filter>
</defs>
</svg>
