<svg width="69" height="69" viewBox="0 0 69 69" fill="none" xmlns="http://www.w3.org/2000/svg">
<g filter="url(#filter0_d_607_1614)">
<rect x="11" y="7" width="47" height="47" rx="10" fill="#FE7624"/>
</g>
<path d="M45.0854 22.1611C43.8572 20.7675 42.1532 20 40.2876 20C37.6637 20 36.0025 21.5671 35.071 22.8818C34.8293 23.2229 34.6238 23.565 34.4511 23.8868C34.2785 23.565 34.073 23.2229 33.8313 22.8818C32.8998 21.5671 31.2386 20 28.6147 20C26.749 20 25.0451 20.7675 23.8168 22.1612C22.6453 23.4906 22 25.2712 22 27.1747C22 29.2468 22.809 31.1741 24.5459 33.2398C26.0983 35.0861 28.3316 36.9891 30.9176 39.1929C31.8813 40.014 32.8778 40.8633 33.9387 41.7915L33.9706 41.8194C34.1082 41.9398 34.2796 42 34.4511 42C34.6226 42 34.7941 41.9398 34.9317 41.8194L34.9635 41.7915C36.0245 40.8633 37.021 40.0141 37.9848 39.1928C40.5707 36.9892 42.804 35.0861 44.3564 33.2398C46.0933 31.174 46.9023 29.2468 46.9023 27.1747C46.9023 25.2712 46.257 23.4906 45.0854 22.1611ZM37.0383 38.0823C36.2076 38.7901 35.3526 39.5187 34.4511 40.3024C33.5497 39.5188 32.6947 38.7902 31.8638 38.0822C26.8027 33.7694 23.4591 30.9201 23.4591 27.1747C23.4591 25.6266 23.9749 24.1887 24.9115 23.1259C25.8589 22.0511 27.174 21.4591 28.6147 21.4591C30.6151 21.4591 31.9082 22.6915 32.6407 23.7253C33.2977 24.6525 33.6406 25.5873 33.7575 25.9461C33.8553 26.2464 34.1353 26.4496 34.4511 26.4496C34.767 26.4496 35.047 26.2464 35.1448 25.9461C35.2617 25.5873 35.6046 24.6525 36.2616 23.7253C36.9941 22.6915 38.2872 21.4591 40.2876 21.4591C41.7283 21.4591 43.0434 22.0511 43.9907 23.1259C44.9274 24.1887 45.4432 25.6266 45.4432 27.1747C45.4432 30.9201 42.0996 33.7694 37.0383 38.0823Z" fill="white"/>
<defs>
<filter id="filter0_d_607_1614" x="0" y="0" width="69" height="69" filterUnits="userSpaceOnUse" color-interpolation-filters="sRGB">
<feFlood flood-opacity="0" result="BackgroundImageFix"/>
<feColorMatrix in="SourceAlpha" type="matrix" values="0 0 0 0 0 0 0 0 0 0 0 0 0 0 0 0 0 0 127 0" result="hardAlpha"/>
<feMorphology radius="5" operator="erode" in="SourceAlpha" result="effect1_dropShadow_607_1614"/>
<feOffset dy="4"/>
<feGaussianBlur stdDeviation="8"/>
<feComposite in2="hardAlpha" operator="out"/>
<feColorMatrix type="matrix" values="0 0 0 0 0.996078 0 0 0 0 0.462745 0 0 0 0 0.141176 0 0 0 1 0"/>
<feBlend mode="normal" in2="BackgroundImageFix" result="effect1_dropShadow_607_1614"/>
<feBlend mode="normal" in="SourceGraphic" in2="effect1_dropShadow_607_1614" result="shape"/>
</filter>
</defs>
</svg>
