<svg width="124" height="192" viewBox="0 0 124 192" fill="none" xmlns="http://www.w3.org/2000/svg">
<g filter="url(#filter0_d_1459_10811)">
<path d="M24 16C24 13.2386 26.2386 11 29 11H94.8802C97.6417 11 99.8802 13.2386 99.8802 16V150C99.8802 152.761 97.6417 155 94.8802 155H29C26.2386 155 24 152.761 24 150V16Z" fill="#F0F5FF"/>
<path d="M25.5 16C25.5 14.067 27.067 12.5 29 12.5H94.8802C96.8132 12.5 98.3802 14.067 98.3802 16V150C98.3802 151.933 96.8132 153.5 94.8802 153.5H29C27.067 153.5 25.5 151.933 25.5 150V16Z" stroke="white" stroke-width="3"/>
</g>
<path d="M31.672 41H34.304C35.44 41 36.208 40.376 36.208 39.432C36.208 38.832 35.896 38.352 35.368 38.12C35.792 37.872 36.04 37.432 36.04 36.904C36.04 35.984 35.312 35.4 34.176 35.4H31.672V41ZM32.928 39.992V38.648H34.112C34.616 38.648 34.904 38.896 34.904 39.32C34.904 39.744 34.616 39.992 34.112 39.992H32.928ZM32.928 37.68V36.408H33.984C34.472 36.408 34.744 36.632 34.744 37.04C34.744 37.448 34.472 37.68 33.984 37.68H32.928ZM39.0608 41.112C40.4528 41.112 41.4128 40.208 41.4128 38.896C41.4128 37.592 40.4528 36.688 39.0608 36.688C37.6608 36.688 36.7008 37.592 36.7008 38.896C36.7008 40.208 37.6608 41.112 39.0608 41.112ZM37.9008 38.896C37.9008 38.208 38.3808 37.728 39.0608 37.728C39.7408 37.728 40.2128 38.208 40.2128 38.896C40.2128 39.584 39.7408 40.064 39.0608 40.064C38.3808 40.064 37.9008 39.584 37.9008 38.896ZM42.2527 41H43.4687V38.8C43.4687 38.136 43.8367 37.728 44.3967 37.728C44.9167 37.728 45.2287 38.096 45.2287 38.712V41H46.4447V38.584C46.4447 37.424 45.7807 36.688 44.6847 36.688C44.1247 36.688 43.6207 36.88 43.2847 37.272L43.1567 36.8H42.2527V41ZM46.5248 42.76H47.1168C48.2368 42.76 48.7248 42.192 48.7248 41.048V36.8H47.5088V41.024C47.5088 41.512 47.3248 41.688 46.9408 41.688H46.5248V42.76ZM47.3248 35.44C47.3248 35.888 47.6448 36.2 48.1088 36.2C48.5648 36.2 48.8848 35.888 48.8848 35.44C48.8848 34.992 48.5648 34.68 48.1088 34.68C47.6448 34.68 47.3248 34.992 47.3248 35.44ZM51.9223 41.112C53.3143 41.112 54.2743 40.208 54.2743 38.896C54.2743 37.592 53.3143 36.688 51.9223 36.688C50.5223 36.688 49.5623 37.592 49.5623 38.896C49.5623 40.208 50.5223 41.112 51.9223 41.112ZM50.7623 38.896C50.7623 38.208 51.2423 37.728 51.9223 37.728C52.6023 37.728 53.0743 38.208 53.0743 38.896C53.0743 39.584 52.6023 40.064 51.9223 40.064C51.2423 40.064 50.7623 39.584 50.7623 38.896ZM56.7863 41.112C57.3383 41.112 57.8343 40.92 58.1703 40.528L58.2983 41H59.2023V36.8H57.9863V38.992C57.9863 39.656 57.6263 40.064 57.0743 40.064C56.5623 40.064 56.2503 39.704 56.2503 39.088V36.8H55.0343V39.208C55.0343 40.376 55.6983 41.112 56.7863 41.112ZM60.3389 41H61.5549V39.144C61.5549 38.24 61.9789 37.904 62.6749 37.904H63.1389V36.8H62.6829C62.0669 36.8 61.6749 36.968 61.4029 37.36L61.2429 36.8H60.3389V41ZM65.6019 39.12H66.7859L66.8499 35.4H65.5379L65.6019 39.12ZM65.4499 40.368C65.4499 40.784 65.7539 41.088 66.1939 41.088C66.6339 41.088 66.9379 40.784 66.9379 40.368C66.9379 39.952 66.6339 39.64 66.1939 39.64C65.7539 39.64 65.4499 39.952 65.4499 40.368Z" fill="#142973"/>
<rect x="46.4189" y="12.7246" width="31.9042" height="4.31138" rx="2" fill="white"/>
<path d="M70.5625 14.4491H74.8739" stroke="#142973" stroke-width="0.5" stroke-linecap="round"/>
<rect x="30.8984" y="50.6647" width="51.7365" height="25.006" rx="2" fill="#1AC9D7"/>
<path d="M36.0717 59.2874H55.9041" stroke="white" stroke-width="2" stroke-linecap="round"/>
<path d="M61.9404 82.5688L61.9404 144.653" stroke="#DAE0F7" stroke-width="2" stroke-linecap="round"/>
<path d="M36.0717 65.3234H70.5628" stroke="white" stroke-width="2" stroke-linecap="round"/>
<path d="M86.9463 52.6647C86.9463 51.5601 87.8417 50.6647 88.9463 50.6647H97.2936V75.6707H88.9463C87.8417 75.6707 86.9463 74.7752 86.9463 73.6707V52.6647Z" fill="#1AC9D7"/>
<path d="M41.5393 25.7663C40.2249 25.5855 39.6702 25.0672 39.6702 24.0423C39.6702 23.1094 40.194 22.5564 40.962 22.3298H38.1959V26.4053C37.9855 26.4485 37.7717 26.4726 37.5569 26.4775C36.8215 26.4775 36.6886 26.1522 36.6886 25.5612V22.3298H34.9783V25.3787C34.7661 24.8318 34.2335 24.4767 33.1187 24.2953C32.7178 24.2352 32.5624 24.1266 32.5624 23.9215C32.5624 23.7407 32.7068 23.572 33.165 23.572C33.6231 23.572 34.0598 23.6999 34.5141 23.9568V22.5134C34.1022 22.316 33.6816 22.2096 33.0927 22.2096C31.8627 22.2096 30.8984 22.7764 30.8984 24.0423C30.8984 25.0672 31.4531 25.586 32.7675 25.7663C33.2736 25.8385 33.4291 25.9593 33.4291 26.1759C33.4291 26.4174 33.1639 26.5139 32.7901 26.5139C32.2839 26.5139 31.5363 26.2846 30.9938 25.9229V27.4302C31.4762 27.7197 32.1753 27.8763 32.8386 27.8763C34.0449 27.8763 34.8951 27.4352 35.0621 26.4786C35.3378 27.5521 36.2558 27.8763 37.5558 27.8763C38.2665 27.8763 39.1487 27.7561 39.764 27.5631V25.9229C40.3065 26.2846 41.0541 26.5139 41.5602 26.5139C41.934 26.5139 42.1992 26.4174 42.1992 26.1759C42.2009 25.9593 42.0438 25.8385 41.5393 25.7663Z" fill="#33CEDB"/>
<path d="M43.4937 22.3298V24.0803C42.9622 23.7424 42.4676 23.5731 41.9361 23.5731C41.4774 23.5731 41.333 23.7424 41.333 23.9232C41.333 24.1283 41.4896 24.2369 41.8882 24.2976C43.4452 24.5512 43.8675 25.1422 43.8675 26.1203C43.8675 26.5195 43.7682 26.847 43.5863 27.1072C44.0158 27.685 44.7899 27.8791 45.7917 27.8791C46.5034 27.8791 47.5284 27.7583 48.1437 27.5654V22.3298H46.4301V26.4059C46.2196 26.4495 46.0055 26.4739 45.7906 26.4787C45.0551 26.4787 44.9222 26.1528 44.9222 25.5618V22.3298H43.4937Z" fill="#FE7624"/>
<circle cx="61.9402" cy="86.8802" r="6.03593" fill="#21CD05"/>
<circle cx="61.9402" cy="106.713" r="6.03593" fill="#21CD05"/>
<circle cx="61.9403" cy="144.653" r="3.4491" fill="#142973"/>
<circle cx="61.9403" cy="126.545" r="3.4491" fill="#142973"/>
<path d="M59.3535 86.9553L61.4613 88.6049L64.5272 85.1558" stroke="white"/>
<path d="M59.3535 106.788L61.4613 108.437L64.5272 104.988" stroke="white"/>
<defs>
<filter id="filter0_d_1459_10811" x="0" y="0" width="123.88" height="192" filterUnits="userSpaceOnUse" color-interpolation-filters="sRGB">
<feFlood flood-opacity="0" result="BackgroundImageFix"/>
<feColorMatrix in="SourceAlpha" type="matrix" values="0 0 0 0 0 0 0 0 0 0 0 0 0 0 0 0 0 0 127 0" result="hardAlpha"/>
<feOffset dy="13"/>
<feGaussianBlur stdDeviation="12"/>
<feComposite in2="hardAlpha" operator="out"/>
<feColorMatrix type="matrix" values="0 0 0 0 0.0784314 0 0 0 0 0.160784 0 0 0 0 0.45098 0 0 0 0.1 0"/>
<feBlend mode="normal" in2="BackgroundImageFix" result="effect1_dropShadow_1459_10811"/>
<feBlend mode="normal" in="SourceGraphic" in2="effect1_dropShadow_1459_10811" result="shape"/>
</filter>
</defs>
</svg>
